<?xml version="1.0" standalone="no"?>
<!DOCTYPE svg PUBLIC "-//W3C//DTD SVG 20010904//EN"
 "http://www.w3.org/TR/2001/REC-SVG-20010904/DTD/svg10.dtd">
<svg version="1.0" xmlns="http://www.w3.org/2000/svg"
 width="902.000000pt" height="902.000000pt" viewBox="0 0 902.000000 902.000000"
 preserveAspectRatio="xMidYMid meet">
<metadata>
Created by potrace 1.14, written by Peter Selinger 2001-2017
</metadata>
<g transform="translate(0.000000,902.000000) scale(0.100000,-0.100000)"
fill="#000000" stroke="none">
<path d="M8655 8199 c-27 -3 -75 -10 -105 -14 -91 -12 -97 -13 -127 -19 -34
-8 -68 -14 -107 -22 -16 -2 -32 -6 -35 -8 -3 -2 -22 -7 -41 -10 -19 -3 -69
-15 -110 -26 -92 -25 -105 -29 -127 -34 -10 -2 -83 -25 -163 -51 -312 -101
-608 -217 -933 -369 -55 -25 -102 -46 -107 -46 -4 0 -13 -7 -20 -15 -7 -9 -15
-14 -17 -11 -3 2 -40 -14 -83 -35 -44 -22 -82 -39 -86 -39 -4 1 -10 -2 -13 -7
-3 -4 -24 -17 -46 -28 -22 -11 -56 -29 -75 -41 -19 -12 -38 -22 -43 -22 -19
-3 -441 -243 -445 -253 -2 -5 -8 -9 -14 -9 -6 0 -80 -44 -165 -97 -85 -54
-163 -102 -172 -108 -42 -25 -126 -80 -131 -85 -3 -4 -27 -21 -55 -40 -66 -44
-287 -201 -302 -215 -6 -5 -44 -35 -83 -65 -205 -156 -369 -299 -555 -485
-114 -114 -173 -178 -240 -260 -16 -20 -35 -42 -40 -48 -30 -34 -135 -186
-135 -195 0 -6 -3 -12 -7 -14 -12 -5 -93 -125 -93 -136 0 -6 -4 -12 -8 -14 -9
-3 -72 -93 -72 -101 0 -6 -64 -106 -78 -122 -4 -5 -11 -17 -15 -25 -4 -8 -18
-33 -31 -55 -115 -199 -182 -325 -251 -477 -26 -57 -48 -107 -49 -113 -2 -5
-9 -23 -15 -40 -36 -85 -79 -214 -74 -219 4 -3 1 -6 -5 -6 -7 0 -11 -3 -10 -7
2 -10 -13 -75 -20 -88 -4 -5 -7 -14 -8 -20 -1 -5 -13 -57 -28 -115 -14 -58
-28 -118 -31 -135 -2 -16 -7 -41 -10 -55 -3 -14 -7 -43 -10 -65 -3 -22 -7 -47
-10 -55 -5 -19 -13 -88 -32 -265 -16 -156 -7 -801 13 -955 3 -25 7 -67 9 -95
2 -27 6 -63 9 -80 2 -16 7 -55 11 -85 9 -79 15 -126 26 -200 5 -36 12 -76 14
-90 2 -14 7 -45 11 -70 4 -25 8 -54 10 -65 2 -11 5 -30 8 -42 2 -11 8 -43 11
-70 4 -26 11 -64 16 -83 5 -20 11 -51 13 -70 6 -40 54 -278 86 -420 12 -52 25
-112 29 -133 10 -46 19 -56 27 -31 3 10 10 28 15 39 4 11 36 90 69 175 33 85
65 165 70 178 16 36 26 59 89 212 34 80 61 151 61 158 0 7 5 12 10 12 6 0 10
5 10 11 0 6 18 55 41 108 39 91 54 124 114 256 36 79 48 109 47 118 -1 4 2 7
8 7 5 0 10 5 10 10 0 6 25 62 55 126 30 64 55 120 55 125 0 5 5 9 10 9 6 0 10
6 10 14 0 21 234 478 346 678 24 43 44 81 44 86 0 5 9 19 20 32 11 13 20 29
20 37 0 7 5 13 10 13 6 0 10 5 10 10 0 6 18 40 40 76 22 36 40 70 40 75 0 5 5
9 10 9 6 0 10 4 10 10 0 12 61 113 73 121 5 3 8 9 8 13 -1 5 50 90 88 145 9
13 21 31 26 39 6 9 25 38 43 64 17 26 32 50 32 53 0 3 5 11 10 18 6 7 42 57
81 112 79 113 81 116 175 240 79 106 121 159 150 195 62 73 221 258 239 276
156 162 217 224 305 304 57 52 110 102 119 110 9 8 38 32 65 54 l48 39 -100
-149 c-348 -521 -669 -1053 -982 -1629 -127 -232 -116 -211 -315 -600 -76
-148 -142 -277 -146 -285 -14 -24 -269 -551 -269 -554 0 -2 -35 -77 -79 -167
-43 -90 -88 -186 -101 -214 -12 -27 -35 -76 -51 -107 -15 -32 -25 -58 -22 -58
3 0 -1 -8 -9 -17 -8 -10 -24 -40 -36 -68 -11 -27 -40 -93 -65 -145 -24 -52
-54 -117 -67 -145 -12 -27 -37 -81 -55 -120 -93 -199 -106 -233 -87 -221 5 3
22 8 38 11 61 11 116 22 124 25 3 1 10 3 15 4 6 1 21 5 35 9 14 4 36 9 50 11
14 2 32 7 40 10 8 3 29 8 45 11 38 8 60 13 60 15 0 1 7 3 15 5 111 23 536 153
630 192 8 3 20 7 25 8 14 4 259 102 315 127 25 11 61 26 80 35 77 33 331 164
425 218 226 130 436 280 645 460 75 64 299 294 365 375 122 148 209 268 301
417 27 43 53 81 59 85 5 4 6 8 1 8 -5 0 -1 9 9 20 10 11 14 20 9 20 -5 0 -4 4
1 8 6 4 16 18 23 31 24 42 154 305 157 316 1 5 10 28 19 50 36 81 44 101 56
135 7 19 19 49 26 65 33 79 166 497 179 565 2 8 9 35 16 60 7 25 13 51 15 57
3 16 53 230 61 263 3 14 7 30 9 35 1 6 5 23 8 39 3 16 10 52 16 80 11 55 17
87 25 126 3 14 7 36 10 50 3 14 8 40 11 59 3 18 8 43 10 55 5 20 9 42 18 91 4
27 20 109 21 115 1 3 5 30 10 60 5 30 9 57 10 60 1 3 5 25 9 50 13 69 15 83
21 110 5 28 15 83 20 120 2 14 9 50 15 80 6 30 13 69 16 85 2 17 6 37 8 45 5
26 16 84 20 110 3 14 5 25 6 25 1 0 3 14 5 30 3 17 18 95 35 175 17 80 33 157
35 172 3 15 10 39 15 53 5 14 9 29 9 33 -1 4 0 9 1 12 2 5 4 17 13 60 27 126
156 544 206 669 12 28 31 75 42 104 12 28 44 99 72 157 28 58 51 108 51 112 1
4 7 13 14 20 6 6 12 15 12 19 0 4 20 42 45 83 25 42 45 81 45 86 0 5 6 13 13
17 7 4 21 25 32 46 11 20 22 37 25 37 3 0 14 15 25 33 37 63 134 183 240 296
90 96 148 151 158 151 5 0 6 4 3 9 -7 10 -285 11 -361 0z"/>
<path d="M162 7263 c-24 -66 -45 -136 -45 -143 0 -3 -3 -15 -8 -28 -5 -13 -11
-37 -14 -55 -3 -18 -8 -40 -11 -49 -11 -35 -38 -210 -49 -320 -4 -29 -8 -68
-11 -86 -19 -141 -26 -810 -11 -1047 15 -241 28 -388 44 -505 3 -25 7 -64 8
-87 3 -38 8 -71 20 -143 2 -14 7 -47 10 -75 3 -27 8 -63 11 -80 6 -35 11 -66
19 -115 5 -37 53 -296 61 -330 4 -20 7 -33 18 -80 3 -14 8 -36 11 -50 11 -56
37 -161 64 -265 23 -85 88 -297 101 -330 4 -11 18 -47 30 -80 12 -33 29 -74
36 -92 8 -17 14 -34 14 -38 0 -10 122 -257 141 -285 9 -14 54 -86 100 -160
175 -284 328 -486 495 -655 84 -85 284 -255 300 -255 4 0 17 -8 28 -18 61 -53
292 -176 461 -245 98 -40 306 -113 345 -122 8 -2 51 -13 95 -25 44 -12 100
-26 124 -31 23 -5 59 -13 80 -18 20 -6 50 -13 66 -15 17 -3 41 -8 55 -11 14
-3 61 -12 105 -20 44 -8 91 -17 104 -20 13 -2 48 -7 79 -11 49 -6 54 -4 48 11
-3 9 -9 33 -12 53 -7 50 -10 63 -17 92 -4 14 -9 40 -12 57 -8 53 -15 94 -27
158 -6 33 -12 71 -14 85 -1 14 -5 39 -8 55 -3 17 -8 53 -11 80 -3 28 -8 57
-10 65 -3 8 -7 35 -9 60 -5 45 -11 91 -22 173 -6 48 -11 95 -18 182 -3 33 -8
92 -11 130 -21 224 -21 722 0 880 2 22 7 65 10 95 4 30 8 66 11 80 3 14 6 32
6 40 0 8 4 34 9 58 5 23 11 57 14 75 11 79 79 358 94 386 5 9 9 18 8 21 0 3
10 37 23 75 14 39 24 73 25 77 0 3 3 10 8 14 17 18 3 50 -55 127 -34 45 -64
84 -68 87 -3 3 -33 39 -68 80 -113 136 -345 356 -532 504 -47 37 -92 73 -100
79 -8 7 -31 23 -50 37 -19 13 -40 29 -46 35 -6 5 -21 17 -34 25 -20 14 -105
76 -141 103 -8 7 -23 17 -32 22 -9 6 -136 93 -282 195 -147 102 -274 190 -283
195 -9 6 -19 12 -22 15 -3 3 -21 17 -40 30 -19 13 -40 29 -46 35 -6 5 -22 17
-34 25 -12 8 -37 26 -55 40 -17 14 -47 36 -65 50 -64 48 -132 102 -149 119 -9
9 -39 34 -66 56 -65 53 -269 256 -325 324 -25 30 -53 63 -62 73 -10 10 -18 22
-18 27 0 5 -4 11 -9 13 -18 6 -162 233 -215 338 -54 105 -107 231 -120 283
-10 41 -21 33 -44 -30z"/>
</g>
</svg>
